M48
; DRILL file {KiCad (5.1.10-1-10_14)} date Saturday, February 26, 2022 at 06:00:54 PM
; FORMAT={-:-/ absolute / inch / decimal}
; #@! TF.CreationDate,2022-02-26T18:00:54+01:00
; #@! TF.GenerationSoftware,Kicad,Pcbnew,(5.1.10-1-10_14)
; #@! TF.FileFunction,Plated,1,2,PTH
FMAT,2
INCH
T1C0.0350
T2C0.0394
T3C0.0402
T4C0.0642
%
G90
G05
T1
X3.76Y-2.6972
X3.76Y-2.7972
X3.76Y-2.8972
X3.76Y-2.9972
X3.86Y-2.7472
X3.86Y-2.8472
X3.86Y-2.9472
X3.86Y-3.0472
T2
X3.122Y-2.682
X3.122Y-2.782
X3.122Y-2.882
X3.122Y-2.982
X3.122Y-3.082
X3.122Y-3.182
X3.122Y-3.282
X3.122Y-3.382
X3.122Y-3.482
X3.122Y-3.582
X3.122Y-3.682
X3.122Y-3.782
X3.122Y-3.882
X3.122Y-3.982
X3.122Y-4.082
X3.122Y-4.182
X3.122Y-4.282
X3.122Y-4.382
X4.486Y-3.282
X4.486Y-3.382
X4.486Y-3.482
X4.486Y-3.582
X4.486Y-3.682
X4.486Y-3.782
X4.486Y-3.882
X4.486Y-3.982
X4.486Y-4.082
X4.486Y-4.182
X4.486Y-4.282
X4.486Y-4.382
T3
X4.3029Y-2.6112
X4.3029Y-2.7112
X4.3029Y-3.0328
X4.3029Y-3.1328
T4
X3.9899Y-2.5671
X3.9899Y-3.1769
T0
M30
