%TF.GenerationSoftware,KiCad,Pcbnew,(5.1.10-1-10_14)*%
%TF.CreationDate,2022-02-26T18:00:52+01:00*%
%TF.ProjectId,esp-expander,6573702d-6578-4706-916e-6465722e6b69,rev?*%
%TF.SameCoordinates,Original*%
%TF.FileFunction,Copper,L2,Bot*%
%TF.FilePolarity,Positive*%
%FSLAX46Y46*%
G04 Gerber Fmt 4.6, Leading zero omitted, Abs format (unit mm)*
G04 Created by KiCad (PCBNEW (5.1.10-1-10_14)) date 2022-02-26 18:00:52*
%MOMM*%
%LPD*%
G01*
G04 APERTURE LIST*
%TA.AperFunction,ComponentPad*%
%ADD10R,1.398000X1.398000*%
%TD*%
%TA.AperFunction,ComponentPad*%
%ADD11C,1.398000*%
%TD*%
%TA.AperFunction,ComponentPad*%
%ADD12C,1.530000*%
%TD*%
%TA.AperFunction,ComponentPad*%
%ADD13C,2.445000*%
%TD*%
%TA.AperFunction,ComponentPad*%
%ADD14R,1.700000X1.700000*%
%TD*%
%TA.AperFunction,ComponentPad*%
%ADD15O,1.700000X1.700000*%
%TD*%
G04 APERTURE END LIST*
D10*
%TO.P,J2,1*%
%TO.N,HR_TD_+*%
X98044000Y-77398800D03*
D11*
%TO.P,J2,2*%
%TO.N,HR_TD_-*%
X95504000Y-76128800D03*
%TO.P,J2,3*%
%TO.N,HR_RD_+*%
X98044000Y-74858800D03*
%TO.P,J2,4*%
%TO.N,Net-(C22-Pad1)*%
X95504000Y-73588800D03*
%TO.P,J2,5*%
X98044000Y-72318800D03*
%TO.P,J2,6*%
%TO.N,HR_RD_-*%
X95504000Y-71048800D03*
%TO.P,J2,7*%
%TO.N,N/C*%
X98044000Y-69778800D03*
%TO.P,J2,8*%
%TO.N,GND1*%
X95504000Y-68508800D03*
D12*
%TO.P,J2,9*%
%TO.N,Net-(J2-Pad9)*%
X109294000Y-79573800D03*
%TO.P,J2,10*%
%TO.N,HR_GREEN*%
X109294000Y-77033800D03*
%TO.P,J2,12*%
%TO.N,Net-(J2-Pad12)*%
X109294000Y-66323800D03*
%TO.P,J2,11*%
%TO.N,HR_YELLOW*%
X109294000Y-68863800D03*
D13*
%TO.P,J2,15*%
%TO.N,GND1*%
X101344000Y-80693800D03*
%TO.P,J2,16*%
X101344000Y-65203800D03*
%TD*%
D14*
%TO.P,J4,1*%
%TO.N,VCC*%
X113944400Y-83362800D03*
D15*
%TO.P,J4,2*%
%TO.N,GND*%
X113944400Y-85902800D03*
%TO.P,J4,3*%
%TO.N,+3V3*%
X113944400Y-88442800D03*
%TO.P,J4,4*%
%TO.N,DIGITAL1*%
X113944400Y-90982800D03*
%TO.P,J4,5*%
%TO.N,DIGITAL2*%
X113944400Y-93522800D03*
%TO.P,J4,6*%
%TO.N,DIGITAL3*%
X113944400Y-96062800D03*
%TO.P,J4,7*%
%TO.N,DIGITAL4*%
X113944400Y-98602800D03*
%TO.P,J4,8*%
%TO.N,DIGITAL5*%
X113944400Y-101142800D03*
%TO.P,J4,9*%
%TO.N,PROGRAMMING_RESET*%
X113944400Y-103682800D03*
%TO.P,J4,10*%
%TO.N,PROGRAMMING_GPIO0*%
X113944400Y-106222800D03*
%TO.P,J4,11*%
%TO.N,PROGRAMMING_TX*%
X113944400Y-108762800D03*
%TO.P,J4,12*%
%TO.N,PROGRAMMING_RX*%
X113944400Y-111302800D03*
%TD*%
D14*
%TO.P,J3,1*%
%TO.N,+3V3*%
X79298800Y-68122800D03*
D15*
%TO.P,J3,2*%
%TO.N,/MCP/MCP1*%
X79298800Y-70662800D03*
%TO.P,J3,3*%
%TO.N,/MCP/MCP2*%
X79298800Y-73202800D03*
%TO.P,J3,4*%
%TO.N,/MCP/MCP3*%
X79298800Y-75742800D03*
%TO.P,J3,5*%
%TO.N,/MCP/MCP4*%
X79298800Y-78282800D03*
%TO.P,J3,6*%
%TO.N,/MCP/MCP5*%
X79298800Y-80822800D03*
%TO.P,J3,7*%
%TO.N,/MCP/MCP6*%
X79298800Y-83362800D03*
%TO.P,J3,8*%
%TO.N,/MCP/MCP7*%
X79298800Y-85902800D03*
%TO.P,J3,9*%
%TO.N,/MCP/MCP8*%
X79298800Y-88442800D03*
%TO.P,J3,10*%
%TO.N,/MCP/MCP9*%
X79298800Y-90982800D03*
%TO.P,J3,11*%
%TO.N,/MCP/MCP10*%
X79298800Y-93522800D03*
%TO.P,J3,12*%
%TO.N,/MCP/MCP11*%
X79298800Y-96062800D03*
%TO.P,J3,13*%
%TO.N,/MCP/MCP12*%
X79298800Y-98602800D03*
%TO.P,J3,14*%
%TO.N,/MCP/MCP13*%
X79298800Y-101142800D03*
%TO.P,J3,15*%
%TO.N,/MCP/MCP14*%
X79298800Y-103682800D03*
%TO.P,J3,16*%
%TO.N,/MCP/MCP15*%
X79298800Y-106222800D03*
%TO.P,J3,17*%
%TO.N,/MCP/MCP16*%
X79298800Y-108762800D03*
%TO.P,J3,18*%
%TO.N,GND*%
X79298800Y-111302800D03*
%TD*%
M02*
